# xmcd CD database file
#
# Track frame offsets:
#	150
#	19782
#	40986
#	61708
#	79101
#	102348
#	129281
#	154412
#	190655
#	205856
#	215765
#	242170
#	259678
#	279091
#	298206
#
# Disc length: 4211 seconds
#
# Revision: 0
# Processed by: cddbd v1.5.1PL0 Copyright (c) Steve Scherf et al.
# Submitted via: CDex 1.51
#
DISCID=d510710f
DTITLE=take 2 and guest - so easy
DYEAR=2004
DGENRE=Jazz
TTITLE0=My Little Suede Shoes
TTITLE1=Turtle Shoes
TTITLE2=I Will Be Here For You
TTITLE3=I Believe In Music
TTITLE4=When Sunny Gets Blue
TTITLE5=Someday My Prince Will Come - Norwegian Wood
TTITLE6=I Wish
TTITLE7=Overjoyed
TTITLE8=Fascinating Rhythm
TTITLE9=Blue Skies
TTITLE10=Feel Like Makin' Love
TTITLE11=27 Wishes
TTITLE12=Tomorrow Taday
TTITLE13=Against All Odds
TTITLE14=Somewhere Over The Rainbow
EXTD=YEAR: 2004
EXTT0=
EXTT1=
EXTT2=
EXTT3=
EXTT4=
EXTT5=
EXTT6=
EXTT7=
EXTT8=
EXTT9=
EXTT10=
EXTT11=
EXTT12=
EXTT13=
EXTT14=
PLAYORDER=
